<?xml version="1.0"?>
<svg xmlns="http://www.w3.org/2000/svg" xmlns:xlink="http://www.w3.org/1999/xlink" xmlns:svgjs="http://svgjs.com/svgjs" version="1.1" width="512" height="512" x="0" y="0" viewBox="0 0 512 512" style="enable-background:new 0 0 512 512" xml:space="preserve" class=""><g><g xmlns="http://www.w3.org/2000/svg" id="XMLID_1340_"><g id="XMLID_40_"><path id="XMLID_61_" d="m502 324h-78.531v-90.814h9.47c5.522 0 10-4.477 10-10v-102.089c0-5.523-4.478-10-10-10h-109.249c17.052-14.878 27.859-36.742 27.859-61.097 0-5.523-4.478-10-10-10s-10 4.477-10 10c0 23.564-13.418 44.04-33.006 54.229 2.576-5.705 4.023-12.025 4.023-18.68 0-25.116-20.434-45.549-45.549-45.549-14.368 0-27.194 6.694-35.548 17.119-8.354-10.425-21.181-17.119-35.549-17.119-25.116 0-45.549 20.433-45.549 45.549 0 6.655 1.447 12.975 4.023 18.68-19.587-10.189-33.005-30.666-33.005-54.229 0-5.523-4.477-10-10-10s-10 4.477-10 10c0 24.355 10.807 46.219 27.859 61.097h-109.248c-5.523 0-10 4.477-10 10v102.089c0 5.523 4.477 10 10 10h9.469v228.814c0 5.523 4.477 10 10 10h38.239c5.523 0 10-4.477 10-10s-4.477-10-10-10h-28.239v-218.814h146.478v218.814h-28.239c-5.523 0-10 4.477-10 10s4.477 10 10 10h344.292c5.522 0 10-4.477 10-10v-128c0-5.523-4.478-10-10-10zm-197.026-17c0-9.374 7.626-17 17-17s17 7.626 17 17v17h-17c-9.374 0-17-7.626-17-17zm54 0c0-9.374 7.626-17 17-17s17 7.626 17 17-7.626 17-17 17h-17zm44.495-24.728c-6.778-7.529-16.592-12.272-27.495-12.272-10.643 0-20.244 4.523-27 11.74-6.756-7.217-16.357-11.74-27-11.74-20.402 0-37 16.598-37 37 0 6.127 1.506 11.906 4.153 17h-32.136v-90.814h146.478zm-197.522-151.175h31.044v192.903h-31.044zm216.992 0v82.089h-165.948v-82.089h.026zm-165.921-71.097c14.088 0 25.549 11.461 25.549 25.549 0 14.087-11.461 25.548-25.549 25.548h-25.548v-25.548c-.001-14.088 11.46-25.549 25.548-25.549zm-71.098 0c14.088 0 25.549 11.461 25.549 25.549v25.548h-25.549c-14.088 0-25.549-11.461-25.549-25.548.001-14.088 11.462-25.549 25.549-25.549zm-165.92 153.186v-82.089h165.92.026v82.089zm185.947 130.814h41.044 91.982v108h-133.026zm286.053 108h-133.026v-108h133.026z" fill="#ffffff" data-original="#000000" style="" class=""/><path id="XMLID_71_" d="m112.71 452c-2.64 0-5.21 1.07-7.07 2.93-1.87 1.86-2.93 4.44-2.93 7.07s1.06 5.21 2.93 7.07c1.86 1.86 4.43 2.93 7.07 2.93 2.63 0 5.21-1.07 7.07-2.93s2.93-4.44 2.93-7.07-1.07-5.21-2.93-7.07-4.44-2.93-7.07-2.93z" fill="#ffffff" data-original="#000000" style="" class=""/></g></g></g></svg>
